<?xml version="1.0" standalone="no"?>
<!DOCTYPE svg PUBLIC "-//W3C//DTD SVG 20010904//EN"
 "http://www.w3.org/TR/2001/REC-SVG-20010904/DTD/svg10.dtd">
<svg version="1.0" xmlns="http://www.w3.org/2000/svg"
 width="298.000000pt" height="298.000000pt" viewBox="0 0 298.000000 298.000000"
 preserveAspectRatio="xMidYMid meet">
<metadata>
Created by potrace 1.14, written by Peter Selinger 2001-2017
</metadata>
<g transform="translate(0.000000,298.000000) scale(0.100000,-0.100000)"
fill="#000000" stroke="none">
<path d="M1349 2976 c-2 -2 -30 -7 -62 -10 -32 -4 -64 -9 -70 -11 -7 -3 -23
-6 -37 -9 -124 -20 -410 -135 -458 -183 -7 -7 -18 -13 -23 -13 -10 0 -146 -98
-178 -128 -9 -9 -40 -38 -67 -63 -27 -25 -67 -68 -89 -94 -22 -27 -52 -63 -67
-81 -16 -17 -28 -36 -28 -42 0 -6 -4 -12 -8 -14 -15 -6 -130 -210 -133 -235
-1 -5 -9 -24 -19 -43 -21 -43 -67 -191 -76 -245 -3 -22 -7 -42 -9 -45 -18 -29
-27 -371 -13 -466 19 -127 45 -225 88 -339 34 -86 110 -238 122 -243 4 -2 8
-8 8 -13 0 -9 37 -67 51 -79 3 -3 12 -14 20 -26 42 -63 118 -143 226 -241 58
-52 208 -150 303 -198 108 -54 294 -116 390 -131 14 -2 50 -8 80 -13 30 -5
126 -8 215 -6 173 2 297 22 443 71 86 29 255 104 260 116 2 5 8 8 13 8 11 0
135 83 194 130 46 36 150 136 180 171 66 79 125 158 125 168 0 6 4 11 9 11 23
0 175 342 195 442 3 13 8 34 11 48 5 26 13 64 22 115 9 55 11 329 2 390 -25
174 -63 301 -134 452 -41 88 -121 221 -151 250 -8 8 -14 17 -14 21 0 6 -23 33
-116 134 -182 198 -525 381 -794 423 -25 4 -54 9 -65 12 -25 6 -341 14 -346 9z"/>
</g>
</svg>
