<?xml version="1.0" standalone="no"?>
<!DOCTYPE svg PUBLIC "-//W3C//DTD SVG 20010904//EN"
 "http://www.w3.org/TR/2001/REC-SVG-20010904/DTD/svg10.dtd">
<svg version="1.0" xmlns="http://www.w3.org/2000/svg"
 width="260.000000pt" height="260.000000pt" viewBox="0 0 260.000000 260.000000"
 preserveAspectRatio="xMidYMid meet">
<metadata>
Created by potrace 1.14, written by Peter Selinger 2001-2017
</metadata>
<g transform="translate(0.000000,260.000000) scale(0.100000,-0.100000)"
fill="#000000" stroke="none">
<path d="M1136 2589 c-561 -77 -994 -486 -1113 -1049 -24 -117 -24 -363 0
-480 83 -394 316 -713 658 -900 39 -22 73 -40 74 -40 2 0 6 11 9 25 7 26 56
85 56 67 0 -6 -12 -23 -26 -37 -37 -37 -29 -63 28 -85 29 -11 45 -13 41 -7 -3
7 2 5 13 -4 10 -9 53 -26 94 -37 315 -86 688 -37 970 128 334 195 556 505 637
890 24 117 24 363 0 480 -113 534 -503 926 -1032 1035 -96 20 -314 28 -409 14z
m312 -485 c7 -2 11 -8 7 -13 -3 -5 -1 -12 4 -16 5 -3 14 1 18 10 7 12 17 11
68 -14 33 -16 69 -36 80 -44 20 -15 19 -16 -12 -49 -39 -41 -41 -56 -9 -113
14 -23 26 -56 28 -71 3 -30 22 -36 61 -19 12 5 17 3 17 -8 0 -8 18 -35 40 -60
53 -60 51 -75 -5 -33 -39 30 -143 72 -153 61 -2 -2 7 -6 20 -10 13 -4 44 -16
71 -27 51 -22 66 -43 17 -27 -16 6 -37 9 -47 6 -11 -2 -2 -7 22 -12 61 -12
115 -42 115 -65 0 -18 -2 -18 -35 -4 -19 7 -42 14 -52 13 -10 0 6 -9 35 -20
49 -19 52 -23 52 -54 l0 -34 -37 21 -38 20 38 -33 c36 -33 37 -35 22 -57 l-17
-23 -25 38 c-31 48 -57 69 -110 93 -55 25 -218 59 -315 67 -65 5 -78 9 -78 23
0 10 7 20 15 24 23 8 18 25 -10 38 -21 10 -29 9 -43 -6 -16 -16 -16 -18 1 -30
9 -7 17 -21 17 -30 0 -13 -11 -16 -65 -16 l-65 0 0 29 c0 17 5 33 10 36 17 10
11 28 -6 21 -18 -7 -64 18 -64 34 0 6 9 10 20 10 11 0 20 4 20 9 0 5 -9 7 -21
4 -26 -7 -39 11 -39 58 0 73 60 109 180 109 l63 0 -7 -46 c-3 -26 -6 -62 -6
-80 0 -30 -3 -34 -27 -34 -31 0 -93 -34 -93 -51 0 -6 15 -1 34 10 42 27 78 28
69 4 -4 -12 0 -11 11 4 10 14 21 57 27 108 10 93 34 166 73 225 24 36 27 38
68 33 24 -2 49 -6 56 -9z m-472 -29 c20 -8 49 -26 65 -39 l29 -25 -29 -20
c-27 -20 -31 -20 -72 -5 -32 11 -73 15 -153 12 -80 -2 -111 1 -114 10 -4 14
69 48 148 67 73 18 84 18 126 0z m240 2 c-11 -7 -47 -33 -80 -59 -62 -48 -135
-92 -142 -86 -5 5 121 99 176 131 44 26 85 38 46 14z m595 -57 c10 0 19 -7 19
-15 0 -8 7 -15 15 -15 8 0 15 5 15 10 0 18 99 -39 117 -67 15 -23 18 -50 18
-174 0 -81 -3 -150 -7 -154 -8 -8 -88 16 -88 27 0 4 -7 8 -15 8 -27 0 -88 37
-122 72 -35 37 -83 131 -83 163 0 12 -3 25 -7 29 -4 3 -8 17 -10 29 -2 12 -10
27 -18 33 -8 6 -15 14 -15 17 0 19 113 50 148 41 8 -2 22 -4 33 -4z m-1131
-30 c0 -5 -9 -10 -19 -10 -11 0 -28 -3 -38 -6 -16 -5 -16 -4 1 10 22 18 56 21
56 6z m178 -271 c-16 -6 -32 -24 -42 -47 -8 -20 -15 -31 -15 -24 -1 19 27 69
41 75 7 3 20 5 28 5 8 0 3 -4 -12 -9z m-58 -136 c0 -22 -2 -25 -10 -13 -13 20
-13 40 0 40 6 0 10 -12 10 -27z m458 20 c-26 -2 -71 -2 -100 0 -29 2 -8 3 47
3 55 0 79 -1 53 -3z m162 -9 c0 -3 -23 -4 -50 -3 -28 1 -46 5 -41 8 11 7 91 2
91 -5z m-240 -9 c91 -9 208 -23 260 -32 l94 -17 -54 -16 c-58 -18 -135 -54
-144 -68 -3 -5 2 -21 10 -37 14 -27 13 -30 -11 -55 -19 -20 -33 -25 -54 -22
-16 2 -37 -1 -48 -7 -15 -9 -11 -10 22 -11 l40 0 18 -60 c9 -32 17 -71 17 -87
0 -21 3 -24 12 -15 8 8 15 9 25 1 21 -18 16 -25 -37 -48 -55 -24 -81 -21 -141
12 l-37 20 24 46 c13 26 26 66 30 90 6 37 3 46 -25 81 -21 26 -27 41 -20 46 7
4 46 7 88 7 l76 1 -73 3 c-68 4 -73 5 -70 25 2 19 -8 27 -62 50 -82 35 -139
36 -167 6 -29 -32 -60 -84 -45 -75 25 16 10 -9 -20 -33 l-31 -24 5 47 c3 26
13 56 22 66 13 14 14 20 4 23 -10 4 -10 13 0 46 12 38 15 41 55 45 23 2 49 4
57 5 8 1 89 -5 180 -13z m283 -2 c-7 -2 -19 -2 -25 0 -7 3 -2 5 12 5 14 0 19
-2 13 -5z m143 -34 c36 -14 54 -26 58 -42 5 -22 5 -22 -13 2 -12 15 -45 31
-97 47 -43 14 -61 22 -40 18 22 -3 63 -14 92 -25z m5 -45 l58 -26 7 -57 c7
-61 31 -101 47 -79 6 10 8 9 4 -2 -8 -31 -33 -20 -54 22 -25 52 -99 148 -114
148 -7 0 -6 -6 2 -17 13 -15 12 -15 -9 -4 -26 14 -64 5 -144 -35 -54 -27 -58
-28 -58 -14 0 18 122 70 163 70 23 0 36 4 32 10 -9 15 2 12 66 -16z m-493 -25
c28 -12 52 -26 52 -30 0 -12 4 -13 -80 16 -93 32 -104 31 -137 -5 -14 -17 -29
-28 -31 -25 -3 3 10 21 29 41 31 32 38 35 74 30 22 -3 64 -15 93 -27z m-128
-98 c8 -16 6 -21 -10 -26 -11 -4 -33 -17 -49 -31 l-29 -24 -5 28 c-5 21 0 32
21 49 33 28 58 29 72 4z m73 1 c-2 -7 2 -11 8 -9 18 4 111 -109 107 -130 -3
-14 -8 -10 -22 17 -23 44 -65 90 -83 90 -8 0 -17 8 -20 18 -4 9 -11 21 -17 25
-7 5 -3 7 9 4 11 -2 19 -9 18 -15z m490 -5 c56 -38 127 -99 127 -109 0 -5 -23
11 -52 37 -28 25 -64 49 -79 52 -34 6 -72 43 -46 43 9 0 31 -10 50 -23z m-129
-8 c8 7 20 10 26 6 16 -10 12 -25 -9 -25 -10 0 -29 -10 -43 -23 l-25 -23 -12
28 c-16 36 -7 50 24 36 18 -8 28 -8 39 1z m213 -102 c10 -17 -49 28 -72 54
-14 16 -6 13 22 -10 24 -18 46 -38 50 -44z m-578 23 c9 0 33 -17 52 -37 l34
-37 -38 32 c-24 21 -48 32 -68 32 -18 0 -28 -4 -24 -10 3 -5 0 -10 -8 -10 -8
0 -20 -7 -27 -15 -7 -9 -19 -14 -27 -11 -7 3 -13 2 -13 -3 0 -4 -12 -13 -27
-20 -23 -9 -25 -9 -13 1 9 7 14 21 12 31 -5 23 45 67 76 67 12 0 22 6 22 12 0
7 7 2 16 -10 8 -12 23 -22 33 -22z m471 -2 c0 -5 -7 -8 -15 -8 -8 0 -15 -4
-15 -8 0 -11 -48 -35 -73 -38 -10 -1 -25 -11 -33 -23 -8 -11 -20 -21 -26 -21
-6 0 -2 10 10 23 15 16 20 30 15 47 -3 14 -2 22 2 18 4 -4 19 2 33 12 13 11
33 20 44 20 12 0 17 4 12 12 -4 6 5 3 19 -8 15 -10 27 -22 27 -26z m-648 -10
c-8 -8 -9 -4 -5 13 4 13 8 18 11 10 2 -7 -1 -18 -6 -23z m238 2 c12 -16 19
-30 16 -30 -2 0 -14 14 -26 30 -12 17 -19 30 -16 30 2 0 14 -13 26 -30z m607
-35 c-1 -36 0 -65 2 -65 2 0 12 11 23 25 27 34 85 36 93 3 9 -40 1 -258 -10
-254 -5 2 -9 9 -8 15 2 6 -1 11 -5 11 -4 0 -9 13 -10 29 -1 16 -9 48 -17 71
-13 38 -13 41 0 30 8 -7 15 -23 15 -37 0 -14 4 -21 10 -18 15 9 12 51 -5 65
-8 7 -15 18 -15 25 0 7 7 18 15 25 8 7 15 16 15 21 0 16 -25 -2 -48 -34 -21
-32 -22 -36 -7 -77 19 -53 19 -139 1 -207 -48 -180 -220 -274 -503 -273 -219
1 -306 24 -392 105 -110 103 -132 307 -55 491 16 37 17 38 25 16 6 -15 5 -31
-2 -44 -10 -18 -9 -20 5 -15 25 10 40 -27 18 -44 -15 -13 -16 -12 -3 4 19 25
8 21 -15 -5 -10 -12 -13 -18 -6 -14 17 10 15 5 -13 -46 -76 -136 -11 -302 145
-372 98 -44 188 -58 335 -53 104 3 142 8 188 26 125 49 214 156 224 270 8 82
-2 123 -42 176 -41 53 -38 79 7 70 l29 -7 -15 37 c-18 42 -12 115 9 115 10 0
13 -18 12 -65z m-117 13 c8 -8 24 -23 34 -36 31 -36 -1 -25 -35 13 -18 19 -40
37 -50 40 -11 4 -19 11 -19 16 0 10 44 -11 70 -33z m-797 -34 c5 -6 -7 -39
-19 -53 -2 -2 -13 4 -24 14 -11 10 -20 13 -20 8 0 -6 7 -16 15 -23 18 -15 19
-42 3 -58 -8 -8 -12 -40 -11 -90 2 -91 -1 -82 -18 54 -15 129 -10 154 35 154
18 0 36 -3 39 -6z m277 -33 c5 -11 10 -21 10 -23 0 -2 -34 -3 -76 -2 -53 1
-78 5 -84 15 -13 21 8 29 77 29 51 0 64 -3 73 -19z m489 9 c33 -9 63 -38 55
-52 -3 -5 -19 -1 -35 8 -19 10 -51 14 -84 13 -35 -2 -60 2 -71 12 -16 13 -15
14 12 20 45 10 86 10 123 -1z m-486 -81 c-13 -13 -91 -31 -104 -24 -22 14 -5
24 49 28 31 2 59 4 62 5 2 1 -1 -3 -7 -9z m448 1 c10 0 19 -4 19 -10 0 -16
-47 -11 -61 7 -12 15 -12 16 4 10 10 -4 27 -7 38 -7z m-422 -32 l1 22 50 -25
c27 -14 58 -25 69 -25 11 0 25 -8 30 -17 9 -16 10 -16 11 -1 0 11 12 18 38 23
22 3 51 12 65 20 26 13 27 13 28 -13 l1 -27 11 28 c8 19 16 26 27 21 8 -3 36
-9 62 -11 l48 -6 -6 -86 c-4 -47 -7 -87 -8 -88 -4 -5 -120 57 -127 68 -6 11
-9 10 -15 -4 -5 -13 -18 -17 -60 -17 -47 0 -56 3 -63 22 l-8 22 -12 -22 c-10
-19 -20 -22 -67 -22 -47 0 -56 3 -63 23 -9 22 -9 22 -21 -5 -7 -16 -19 -28
-25 -28 -7 0 -34 -11 -60 -25 -26 -14 -49 -24 -50 -23 -2 2 -5 46 -7 98 l-3
94 40 -2 c22 -1 54 4 70 12 28 12 31 11 37 -8 6 -20 6 -20 7 2z m-364 -209
c-5 -13 -3 -19 3 -15 11 7 26 -40 17 -54 -4 -6 -2 -10 4 -10 6 0 8 -7 5 -15
-11 -27 -39 -17 -50 19 -8 26 -8 42 2 65 15 35 29 42 19 10z m1075 17 c0 -3
-4 -8 -10 -11 -5 -3 -10 -1 -10 4 0 6 5 11 10 11 6 0 10 -2 10 -4z m20 -26 c0
-5 -4 -10 -10 -10 -5 0 -10 5 -10 10 0 6 5 10 10 10 6 0 10 -4 10 -10z m-21
-21 c10 -18 15 -19 22 -8 7 11 9 11 9 -3 0 -9 -8 -22 -17 -27 -17 -10 -17 -10
-1 -11 24 0 11 -30 -13 -30 -18 0 -21 4 -23 33 -1 6 -5 15 -10 18 -9 7 1 49
12 49 4 0 13 -10 21 -21z m-609 -96 c-8 -3 -30 -14 -47 -25 -18 -11 -33 -17
-33 -14 0 10 64 46 80 45 13 0 13 -1 0 -6z m200 -249 l0 -76 -69 -30 c-47 -21
-74 -40 -86 -61 l-18 -30 -18 24 c-10 13 -27 36 -39 51 -26 34 -25 41 3 33 19
-5 20 -4 6 7 -16 13 -16 29 -3 115 l5 32 107 4 c59 1 108 4 110 5 1 1 2 -32 2
-74z m-309 23 c-10 -9 -11 -8 -5 6 3 10 9 15 12 12 3 -3 0 -11 -7 -18z m55
-32 c20 -15 15 -18 -26 -16 -31 1 -98 -36 -117 -66 -15 -22 -14 -22 18 -13 50
15 44 6 -11 -17 -28 -12 -50 -19 -50 -16 0 2 13 23 29 46 61 88 113 115 157
82z m34 -205 c0 -5 -18 -10 -41 -10 -24 0 -38 4 -34 10 3 6 22 10 41 10 19 0
34 -4 34 -10z m-345 -50 c-3 -5 -10 -10 -16 -10 -5 0 -9 5 -9 10 0 6 7 10 16
10 8 0 12 -4 9 -10z m331 -36 c-4 -9 -9 -15 -11 -12 -3 3 -3 13 1 22 4 9 9 15
11 12 3 -3 3 -13 -1 -22z m-284 -76 c-7 -7 -12 -8 -12 -2 0 14 12 26 19 19 2
-3 -1 -11 -7 -17z"/>
<path d="M1082 1895 c-18 -39 -14 -83 8 -105 25 -25 32 -25 55 0 20 22 16 64
-11 105 -21 32 -38 32 -52 0z m43 -35 c0 -13 -6 -25 -12 -27 -16 -6 -27 21
-19 43 9 23 31 11 31 -16z"/>
<path d="M1439 1903 c-20 -24 -18 -99 4 -120 23 -23 50 -7 58 33 11 61 -33
123 -62 87z m35 -28 c7 -20 -4 -47 -18 -42 -17 6 -20 57 -3 57 8 0 17 -7 21
-15z"/>
<path d="M1441 1698 c5 -10 11 -18 13 -18 2 0 6 8 8 18 4 12 -1 18 -13 18 -14
0 -15 -4 -8 -18z"/>
<path d="M1120 1666 c0 -2 8 -10 18 -17 15 -13 16 -12 3 4 -13 16 -21 21 -21
13z"/>
<path d="M1301 1177 c-9 -27 -10 -42 -3 -49 7 -7 13 0 17 25 10 53 0 68 -14
24z"/>
<path d="M926 1369 c-15 -12 -25 -23 -23 -26 8 -7 76 30 71 39 -8 13 -19 10
-48 -13z"/>
<path d="M1370 1345 c0 -16 16 -20 24 -6 3 5 -1 11 -9 15 -9 3 -15 0 -15 -9z"/>
</g>
</svg>
